<?xml version="1.0" encoding="UTF-8"?>
<!--
  LLM-101 · Codex Icon Sprite
  Spec deliverable for redesign/codex-v2 · package A.

  Usage:
    <svg class="ic"><use href="#i-NAME"/></svg>

  Default stroke style (apply via CSS .ic class):
    fill: none;
    stroke: currentColor;
    stroke-width: 1.6;
    stroke-linecap: round;
    stroke-linejoin: round;

  Lucide-derived shapes. 41 symbols.
-->
<svg xmlns="http://www.w3.org/2000/svg" style="position:absolute; width:0; height:0; overflow:hidden" aria-hidden="true">
  <defs>
    <!-- ===== Navigation ===== -->
    <symbol id="i-arrow-left" viewBox="0 0 24 24"><path d="M19 12H5M5 12l7-7M5 12l7 7"/></symbol>
    <symbol id="i-arrow-right" viewBox="0 0 24 24"><path d="M5 12h14M19 12l-7-7M19 12l-7 7"/></symbol>
    <symbol id="i-chevron-right" viewBox="0 0 24 24"><path d="m9 6 6 6-6 6"/></symbol>

    <!-- ===== Theme ===== -->
    <symbol id="i-sun" viewBox="0 0 24 24"><circle cx="12" cy="12" r="4"/><path d="M12 2v2"/><path d="M12 20v2"/><path d="m4.93 4.93 1.41 1.41"/><path d="m17.66 17.66 1.41 1.41"/><path d="M2 12h2"/><path d="M20 12h2"/><path d="m4.93 19.07 1.41-1.41"/><path d="m17.66 6.34 1.41-1.41"/></symbol>
    <symbol id="i-moon" viewBox="0 0 24 24"><path d="M21 12.79A9 9 0 1 1 11.21 3a7 7 0 0 0 9.79 9.79z"/></symbol>

    <!-- ===== Status ===== -->
    <symbol id="i-check" viewBox="0 0 24 24" stroke-width="2.2"><path d="m5 12 5 5L20 7"/></symbol>
    <symbol id="i-x" viewBox="0 0 24 24" stroke-width="2.2"><path d="M6 6 18 18 M6 18 18 6"/></symbol>
    <symbol id="i-alert-triangle" viewBox="0 0 24 24"><path d="M10.3 3.86 1.82 18a2 2 0 0 0 1.71 3h16.94a2 2 0 0 0 1.71-3L13.71 3.86a2 2 0 0 0-3.42 0z"/><path d="M12 9v4"/><path d="M12 17h0"/></symbol>
    <symbol id="i-octagon" viewBox="0 0 24 24"><path d="M7.86 2h8.28L22 7.86v8.28L16.14 22H7.86L2 16.14V7.86z"/><path d="M9 9l6 6 M9 15l6-6"/></symbol>
    <symbol id="i-circle-dashed" viewBox="0 0 24 24"><circle cx="12" cy="12" r="9" stroke-dasharray="3 3"/></symbol>
    <symbol id="i-circle-help" viewBox="0 0 24 24"><circle cx="12" cy="12" r="10"/><path d="M9.1 9a3 3 0 0 1 5.8 1c0 2-3 3-3 3"/><path d="M12 17h0"/></symbol>

    <!-- ===== Chapters & Wayfinding ===== -->
    <symbol id="i-bookmark" viewBox="0 0 24 24"><path d="m19 21-7-5-7 5V5a2 2 0 0 1 2-2h10a2 2 0 0 1 2 2z"/></symbol>
    <symbol id="i-compass" viewBox="0 0 24 24"><circle cx="12" cy="12" r="10"/><polygon points="16 8 10 10 8 16 14 14"/></symbol>
    <symbol id="i-route" viewBox="0 0 24 24"><circle cx="6" cy="19" r="3"/><path d="M9 19h6a4 4 0 0 0 0-8H9a4 4 0 0 1 0-8h6"/><circle cx="18" cy="5" r="3"/></symbol>
    <symbol id="i-shield" viewBox="0 0 24 24"><path d="M12 2 4 5v6c0 5 3.5 9.5 8 11 4.5-1.5 8-6 8-11V5z"/></symbol>
    <symbol id="i-shield-check" viewBox="0 0 24 24"><path d="M12 2 4 5v6c0 5 3.5 9.5 8 11 4.5-1.5 8-6 8-11V5z"/><path d="m9 12 2 2 4-4"/></symbol>
    <symbol id="i-sparkles" viewBox="0 0 24 24"><path d="m12 3-1.9 5.8L4 11l6.1 2.2L12 19l1.9-5.8L20 11l-6.1-2.2z"/><path d="m5 20 1-1"/><path d="m18 5-1 1"/></symbol>
    <symbol id="i-eye" viewBox="0 0 24 24"><path d="M2 12s3.5-7 10-7 10 7 10 7-3.5 7-10 7S2 12 2 12Z"/><circle cx="12" cy="12" r="3"/></symbol>
    <symbol id="i-layers" viewBox="0 0 24 24"><path d="m12 2 10 6-10 6L2 8z"/><path d="m2 14 10 6 10-6"/></symbol>
    <symbol id="i-book-open" viewBox="0 0 24 24"><path d="M2 4h7a3 3 0 0 1 3 3v13a2 2 0 0 0-2-2H2z"/><path d="M22 4h-7a3 3 0 0 0-3 3v13a2 2 0 0 1 2-2h8z"/></symbol>
    <symbol id="i-book" viewBox="0 0 24 24"><path d="M4 19.5A2.5 2.5 0 0 1 6.5 17H20V2H6.5A2.5 2.5 0 0 0 4 4.5z"/></symbol>
    <symbol id="i-target" viewBox="0 0 24 24"><circle cx="12" cy="12" r="9"/><circle cx="12" cy="12" r="5"/><circle cx="12" cy="12" r="1.5"/></symbol>

    <!-- ===== Content ===== -->
    <symbol id="i-globe" viewBox="0 0 24 24"><circle cx="12" cy="12" r="10"/><path d="M2 12h20"/><path d="M12 2a15 15 0 0 1 0 20"/><path d="M12 2a15 15 0 0 0 0 20"/></symbol>
    <symbol id="i-lock" viewBox="0 0 24 24"><rect x="3" y="11" width="18" height="11" rx="2"/><path d="M7 11V7a5 5 0 0 1 10 0v4"/></symbol>
    <symbol id="i-edit" viewBox="0 0 24 24"><path d="M11 4H4a2 2 0 0 0-2 2v14a2 2 0 0 0 2 2h14a2 2 0 0 0 2-2v-7"/><path d="m18.5 2.5 3 3L12 15l-4 1 1-4z"/></symbol>
    <symbol id="i-quote" viewBox="0 0 24 24" stroke-width="1.8"><path d="M6 9h3v6H4V11a2 2 0 0 1 2-2zM15 9h3v6h-5V11a2 2 0 0 1 2-2z"/></symbol>
    <symbol id="i-zap" viewBox="0 0 24 24"><polygon points="13 2 3 14 12 14 11 22 21 10 12 10"/></symbol>
    <symbol id="i-play" viewBox="0 0 24 24" stroke-width="0" fill="currentColor"><polygon points="6 4 20 12 6 20"/></symbol>
    <symbol id="i-play-circle" viewBox="0 0 24 24"><circle cx="12" cy="12" r="10"/><polygon points="10 8 16 12 10 16" fill="currentColor"/></symbol>
    <symbol id="i-rotate-ccw" viewBox="0 0 24 24"><path d="M3 12a9 9 0 1 0 3-6.7"/><path d="M3 3v6h6"/></symbol>
    <symbol id="i-message-square" viewBox="0 0 24 24"><path d="M21 15a2 2 0 0 1-2 2H7l-4 4V5a2 2 0 0 1 2-2h14a2 2 0 0 1 2 2z"/></symbol>
    <symbol id="i-messages-square" viewBox="0 0 24 24"><path d="M14 9a2 2 0 0 1-2 2H6l-4 4V4c0-1.1.9-2 2-2h8a2 2 0 0 1 2 2z"/><path d="M18 9h2a2 2 0 0 1 2 2v11l-4-4h-6a2 2 0 0 1-2-2v-1"/></symbol>
    <symbol id="i-list" viewBox="0 0 24 24"><path d="M8 6h13"/><path d="M8 12h13"/><path d="M8 18h13"/><path d="M3 6h.01"/><path d="M3 12h.01"/><path d="M3 18h.01"/></symbol>

    <!-- ===== Legacy icons from existing lib/icons.js (Lucide ports) ===== -->
    <symbol id="i-brain" viewBox="0 0 24 24"><path d="M9.5 2A2.5 2.5 0 0 1 12 4.5v15a2.5 2.5 0 0 1-4.96.44 2.5 2.5 0 0 1-2.96-3.08 3 3 0 0 1-.34-5.58 2.5 2.5 0 0 1 1.32-4.24 2.5 2.5 0 0 1 1.98-3A2.5 2.5 0 0 1 9.5 2Z"/><path d="M14.5 2A2.5 2.5 0 0 0 12 4.5v15a2.5 2.5 0 0 0 4.96.44 2.5 2.5 0 0 0 2.96-3.08 3 3 0 0 0 .34-5.58 2.5 2.5 0 0 0-1.32-4.24 2.5 2.5 0 0 0-1.98-3A2.5 2.5 0 0 0 14.5 2Z"/></symbol>
    <symbol id="i-code" viewBox="0 0 24 24"><path d="m16 18 6-6-6-6"/><path d="m8 6-6 6 6 6"/></symbol>
    <symbol id="i-file-text" viewBox="0 0 24 24"><path d="M14.5 2H6a2 2 0 0 0-2 2v16a2 2 0 0 0 2 2h12a2 2 0 0 0 2-2V7.5z"/><polyline points="14 2 14 8 20 8"/><path d="M16 13H8"/><path d="M16 17H8"/><path d="M10 9H8"/></symbol>
    <symbol id="i-lightbulb" viewBox="0 0 24 24"><path d="M15 14c.2-1 .7-1.7 1.5-2.5 1-.9 1.5-2.2 1.5-3.5A6 6 0 0 0 6 8c0 1 .2 2.2 1.5 3.5.7.7 1.3 1.5 1.5 2.5"/><path d="M9 18h6"/><path d="M10 22h4"/></symbol>
    <symbol id="i-search" viewBox="0 0 24 24"><circle cx="11" cy="11" r="8"/><path d="m21 21-4.3-4.3"/></symbol>
    <symbol id="i-database" viewBox="0 0 24 24"><ellipse cx="12" cy="5" rx="9" ry="3"/><path d="M3 5v14a9 3 0 0 0 18 0V5"/><path d="M3 12a9 3 0 0 0 18 0"/></symbol>
    <symbol id="i-workflow" viewBox="0 0 24 24"><rect x="3" y="3" width="8" height="8" rx="1"/><path d="M7 11v4a2 2 0 0 0 2 2h4"/><rect x="13" y="13" width="8" height="8" rx="1"/></symbol>
    <symbol id="i-git-branch" viewBox="0 0 24 24"><line x1="6" y1="3" x2="6" y2="15"/><circle cx="18" cy="6" r="3"/><circle cx="6" cy="18" r="3"/><path d="M18 9a9 9 0 0 1-9 9"/></symbol>
    <symbol id="i-package" viewBox="0 0 24 24"><path d="m7.5 4.27 9 5.15"/><path d="M21 8a2 2 0 0 0-1-1.73l-7-4a2 2 0 0 0-2 0l-7 4A2 2 0 0 0 3 8v8a2 2 0 0 0 1 1.73l7 4a2 2 0 0 0 2 0l7-4A2 2 0 0 0 21 16z"/><path d="m3.3 7 8.7 5 8.7-5"/><path d="M12 22V12"/></symbol>
  </defs>
</svg>
